<svg height="16.112" viewBox="0 0 15.105 16.112" width="15.105" xmlns="http://www.w3.org/2000/svg"><g fill="#af8a5f"><path d="m136.009 7.344a.5.5 0 0 0 -.458-.3h-2.014v-6.544a.5.5 0 0 0 -.5-.5h-2.014a.5.5 0 0 0 -.5.5v6.549h-2.023a.5.5 0 0 0 -.379.835l3.525 4.028a.5.5 0 0 0 .757 0l3.525-4.028a.5.5 0 0 0 .081-.54z" transform="translate(-124.473)"/><path d="m29.091 352v3.021h-11.077v-3.021h-2.014v4.028a1.007 1.007 0 0 0 1.007 1.007h13.093a1.006 1.006 0 0 0 1.007-1.007v-4.028z" transform="translate(-16 -340.923)"/></g></svg>